<svg width="512" height="512" viewBox="0 0 512 512" fill="none" xmlns="http://www.w3.org/2000/svg">
  <rect width="512" height="512" rx="128" fill="#020617"/>
  <path d="M152 144C152 166.091 169.909 184 192 184C214.091 184 232 166.091 232 144C232 121.909 214.091 104 192 104C169.909 104 152 121.909 152 144ZM152 144L216 256M360 144C360 166.091 342.091 184 320 184C297.909 184 280 166.091 280 144C280 121.909 297.909 104 320 104C342.091 104 360 121.909 360 144ZM360 144L296 256M256 256L144 408M256 256L368 408" stroke="#10B981" stroke-width="32" stroke-linecap="round" stroke-linejoin="round"/>
</svg>
